<svg width="95" height="121" viewBox="0 0 95 121" fill="none" xmlns="http://www.w3.org/2000/svg">
<path d="M94.525 117.325C94.525 118.37 93.6701 119.225 92.6251 119.225H3.32506C2.28006 119.225 1.42506 118.37 1.42506 117.325V3.32499C1.42506 2.27999 2.28006 1.42499 3.32506 1.42499H92.6251C93.6701 1.42499 94.525 2.27999 94.525 3.32499V117.325Z" fill="white"/>
<path d="M85.025 10.925H10.925V31.825H85.025V10.925Z" fill="#4D4D4D"/>
<path d="M39.4249 79.325H10.925V107.825H39.4249V79.325Z" fill="#4D4D4D"/>
<path d="M61.275 42.75H10.925C10.355 42.75 9.97499 42.37 9.97499 41.8C9.97499 41.23 10.355 40.85 10.925 40.85H61.275C61.845 40.85 62.225 41.23 62.225 41.8C62.225 42.37 61.845 42.75 61.275 42.75Z" fill="black"/>
<path d="M61.275 52.25H10.925C10.355 52.25 9.97499 51.87 9.97499 51.3C9.97499 50.73 10.355 50.35 10.925 50.35H61.275C61.845 50.35 62.225 50.73 62.225 51.3C62.225 51.87 61.845 52.25 61.275 52.25Z" fill="black"/>
<path d="M61.275 61.75H10.925C10.355 61.75 9.97499 61.37 9.97499 60.8C9.97499 60.23 10.355 59.85 10.925 59.85H61.275C61.845 59.85 62.225 60.23 62.225 60.8C62.225 61.37 61.845 61.75 61.275 61.75Z" fill="black"/>
<path d="M61.275 71.25H10.925C10.355 71.25 9.97499 70.87 9.97499 70.3C9.97499 69.73 10.355 69.35 10.925 69.35H61.275C61.845 69.35 62.225 69.73 62.225 70.3C62.225 70.87 61.845 71.25 61.275 71.25Z" fill="black"/>
<path d="M85.0249 80.75H49.8749C49.3049 80.75 48.9249 80.37 48.9249 79.8C48.9249 79.23 49.3049 78.85 49.8749 78.85H85.0249C85.5949 78.85 85.9749 79.23 85.9749 79.8C85.9749 80.37 85.5949 80.75 85.0249 80.75Z" fill="black"/>
<path d="M85.0249 90.25H49.8749C49.3049 90.25 48.9249 89.87 48.9249 89.3C48.9249 88.73 49.3049 88.35 49.8749 88.35H85.0249C85.5949 88.35 85.9749 88.73 85.9749 89.3C85.9749 89.87 85.5949 90.25 85.0249 90.25Z" fill="black"/>
<path d="M85.0249 99.75H49.8749C49.3049 99.75 48.9249 99.37 48.9249 98.8C48.9249 98.23 49.3049 97.85 49.8749 97.85H85.0249C85.5949 97.85 85.9749 98.23 85.9749 98.8C85.9749 99.37 85.5949 99.75 85.0249 99.75Z" fill="black"/>
<path d="M85.0249 109.25H49.8749C49.3049 109.25 48.9249 108.87 48.9249 108.3C48.9249 107.73 49.3049 107.35 49.8749 107.35H85.0249C85.5949 107.35 85.9749 107.73 85.9749 108.3C85.9749 108.87 85.5949 109.25 85.0249 109.25Z" fill="black"/>
<path d="M85.0251 42.75H69.8251C69.2551 42.75 68.8751 42.37 68.8751 41.8C68.8751 41.23 69.2551 40.85 69.8251 40.85H85.0251C85.5951 40.85 85.9751 41.23 85.9751 41.8C85.9751 42.37 85.5951 42.75 85.0251 42.75Z" fill="black"/>
<path d="M85.0251 52.25H69.8251C69.2551 52.25 68.8751 51.87 68.8751 51.3C68.8751 50.73 69.2551 50.35 69.8251 50.35H85.0251C85.5951 50.35 85.9751 50.73 85.9751 51.3C85.9751 51.87 85.5951 52.25 85.0251 52.25Z" fill="black"/>
<path d="M85.0251 61.75H69.8251C69.2551 61.75 68.8751 61.37 68.8751 60.8C68.8751 60.23 69.2551 59.85 69.8251 59.85H85.0251C85.5951 59.85 85.9751 60.23 85.9751 60.8C85.9751 61.37 85.5951 61.75 85.0251 61.75Z" fill="black"/>
<path d="M85.0251 71.25H69.8251C69.2551 71.25 68.8751 70.87 68.8751 70.3C68.8751 69.73 69.2551 69.35 69.8251 69.35H85.0251C85.5951 69.35 85.9751 69.73 85.9751 70.3C85.9751 70.87 85.5951 71.25 85.0251 71.25Z" fill="black"/>
<path d="M92.15 120.65H2.85C1.235 120.65 0 119.415 0 117.8V2.85C0 1.235 1.235 0 2.85 0H92.15C93.765 0 95 1.235 95 2.85V117.8C95 119.415 93.765 120.65 92.15 120.65ZM2.85 1.9C2.28 1.9 1.9 2.28 1.9 2.85V117.8C1.9 118.37 2.28 118.75 2.85 118.75H92.15C92.72 118.75 93.1 118.37 93.1 117.8V2.85C93.1 2.28 92.72 1.9 92.15 1.9H2.85Z" fill="black"/>
<path d="M84.55 33.25H10.4501C9.88006 33.25 9.50006 32.87 9.50006 32.3V11.4C9.50006 10.83 9.88006 10.45 10.4501 10.45H84.55C85.12 10.45 85.5 10.83 85.5 11.4V32.3C85.5 32.87 85.12 33.25 84.55 33.25ZM11.4001 31.35H83.6V12.35H11.4001V31.35Z" fill="black"/>
<path d="M38.9501 109.25H10.4501C9.88006 109.25 9.50006 108.87 9.50006 108.3V79.8C9.50006 79.23 9.88006 78.85 10.4501 78.85H38.9501C39.5201 78.85 39.9001 79.23 39.9001 79.8V108.3C39.9001 108.87 39.5201 109.25 38.9501 109.25ZM11.4001 107.35H38.0001V80.75H11.4001V107.35Z" fill="black"/>
</svg>
