<svg width="22" height="22" viewBox="0 0 22 22" fill="none" xmlns="http://www.w3.org/2000/svg">
<path d="M8.27269 21.0001C8.77477 21.0001 9.18178 20.5737 9.18178 20.0477C9.18178 19.5217 8.77477 19.0953 8.27269 19.0953C7.77062 19.0953 7.3636 19.5217 7.3636 20.0477C7.3636 20.5737 7.77062 21.0001 8.27269 21.0001Z" stroke="#939393" stroke-width="2" stroke-linecap="round" stroke-linejoin="round"/>
<path d="M18.2727 21.0001C18.7748 21.0001 19.1818 20.5737 19.1818 20.0477C19.1818 19.5217 18.7748 19.0953 18.2727 19.0953C17.7706 19.0953 17.3636 19.5217 17.3636 20.0477C17.3636 20.5737 17.7706 21.0001 18.2727 21.0001Z" stroke="#939393" stroke-width="2" stroke-linecap="round" stroke-linejoin="round"/>
<path d="M1 1H4.63636L7.07273 13.7524C7.15586 14.1909 7.38355 14.5847 7.71595 14.865C8.04835 15.1454 8.46427 15.2943 8.89091 15.2857H17.7273C18.1539 15.2943 18.5698 15.1454 18.9022 14.865C19.2346 14.5847 19.4623 14.1909 19.5455 13.7524L21 5.76191H5.54545" stroke="#939393" stroke-width="2" stroke-linecap="round" stroke-linejoin="round"/>
</svg>
