<svg width="21" height="20" viewBox="0 0 21 20" fill="none" xmlns="http://www.w3.org/2000/svg">
<path d="M18.9487 8.66978C19.3004 9.02148 19.4865 9.45214 19.4989 9.94511V9.99826V17.1216C19.4989 18.1552 18.6541 19 17.6205 19H13.5675V14.3663C13.5675 13.3141 12.7109 12.4575 11.6587 12.4575H9.34089C8.2886 12.4575 7.43204 13.3141 7.43204 14.3663V19H3.37904C2.34541 19 1.50061 18.1552 1.50061 17.1216V9.99826C1.50061 9.4824 1.68679 9.03389 2.05091 8.67033L2.0516 8.66965L9.17033 1.54825C9.90114 0.817441 11.0953 0.817057 11.8272 1.54825C11.8273 1.54833 11.8274 1.5484 11.8274 1.54847L18.9487 8.66978Z" stroke="#939393" stroke-width="2"/>
</svg>
