<svg width="30" height="56" viewBox="0 0 30 56" fill="none" xmlns="http://www.w3.org/2000/svg">
<path d="M3.21225 54.6816C2.71332 54.6785 2.2357 54.479 1.88289 54.1262C1.53009 53.7734 1.33054 53.2957 1.32748 52.7968V21.8145C1.32748 19.348 5.21337 13.4959 7.66822 10.3779L7.91254 10.0637V5.96844H21.4899V10.0637L21.7342 10.3779C24.2007 13.4959 28.0865 19.348 28.0865 21.8145V52.7968C28.0835 53.2977 27.8823 53.7771 27.527 54.1303C27.1717 54.4834 26.6911 54.6816 26.1901 54.6816H3.21225Z" fill="white"/>
<path d="M20.3264 7.1319V10.471L20.8267 11.0992C23.7586 14.8106 26.9231 19.9646 26.9231 21.8145V52.7968C26.9201 52.9872 26.8432 53.1689 26.7085 53.3035C26.5739 53.4382 26.3922 53.5151 26.2018 53.5181H3.21227C3.02189 53.5151 2.84016 53.4382 2.70552 53.3035C2.57089 53.1689 2.49393 52.9872 2.49094 52.7968V21.8145C2.49094 19.9762 5.65548 14.8339 8.58734 11.0992L9.08762 10.471V7.1319H20.3381M22.6649 4.80502H6.76075V9.65656C6.76075 9.65656 0.164062 18.0217 0.164062 21.8145V52.7968C0.164063 53.6052 0.485212 54.3806 1.05686 54.9522C1.62851 55.5239 2.40383 55.845 3.21227 55.845H26.1901C26.5914 55.8465 26.989 55.7688 27.3602 55.6163C27.7314 55.4638 28.0688 55.2395 28.3531 54.9563C28.6374 54.6731 28.8629 54.3366 29.0168 53.966C29.1708 53.5954 29.25 53.1981 29.25 52.7968V21.8145C29.25 18.0217 22.6533 9.65656 22.6533 9.65656V4.80502H22.6649Z" fill="black"/>
<path d="M4.32916 1.16348H25.0732V6.98067H4.32916V1.16348Z" fill="black"/>
<path d="M23.9215 2.32687V5.81718H5.49261V2.32687H23.9215ZM24.7475 0H4.66658C4.26853 0 3.88678 0.158123 3.60532 0.439584C3.32386 0.721045 3.16574 1.10279 3.16574 1.50083V6.64322C3.16574 7.04127 3.32386 7.42301 3.60532 7.70447C3.88678 7.98593 4.26853 8.14406 4.66658 8.14406H24.7359C25.1339 8.14406 25.5157 7.98593 25.7971 7.70447C26.0786 7.42301 26.2367 7.04127 26.2367 6.64322V1.50083C26.2367 1.10279 26.0786 0.721045 25.7971 0.439584C25.5157 0.158123 25.1339 1.44639e-08 24.7359 0L24.7475 0Z" fill="black"/>
<path d="M1.32748 25.5956H28.0865V44.2106H1.32748V25.5956Z" fill="black"/>
<path d="M26.9231 26.7591V43.0472H2.49094V26.7591H26.9231ZM29.25 24.4322H0.164062V45.374H29.25V24.4322Z" fill="black"/>
<rect x="2.37759" y="26.472" width="24.4775" height="17.0436" fill="#D9D9D9"/>
<g clip-path="url(#clip0_17_124)">
<path d="M10.8107 32.1682C9.232 33.7475 9.68934 37.0337 10.0209 38.5934L13.1242 35.49V33.5773C13.1242 33.2945 13.3534 33.0654 13.6362 33.0654C13.919 33.0654 14.1481 33.2945 14.1481 33.5773V34.4662L16.4616 32.1526C16.6615 31.9532 16.9853 31.9532 17.1852 32.1526C17.3851 32.3525 17.3851 32.6768 17.1852 32.8767L16.6425 33.4193H17.5318C17.8141 33.4193 18.0438 33.6485 18.0438 33.9313C18.0438 34.2141 17.8141 34.4432 17.5318 34.4432H15.6191L13.1013 36.961L13.9906 36.9605C14.2729 36.9605 14.5021 37.1897 14.5021 37.4725C14.5021 37.7553 14.2729 37.9844 13.9906 37.9844H12.0774L10.7439 39.3179C11.446 39.4676 12.5002 39.6422 13.5962 39.6422C15.2276 39.6422 16.4299 39.2667 17.1696 38.5271C18.0628 37.6339 18.9321 35.5778 19.684 32.5812C20.0609 31.0771 20.3197 29.6802 20.4553 28.8825C19.6576 29.0181 18.2612 29.277 16.7571 29.6544C13.76 30.4057 11.704 31.275 10.8107 32.1682Z" fill="#0B9D60"/>
<path d="M7.25375 41.3605C7.05385 41.5604 7.05385 41.8847 7.25375 42.0841C7.3537 42.184 7.48486 42.2343 7.61553 42.2343C7.74668 42.2343 7.87784 42.184 7.97779 42.0841L9.89197 40.1699C10.5092 40.3303 11.9939 40.6658 13.596 40.6658C15.5087 40.6658 16.9549 40.1899 17.8934 39.2513C20.3327 36.812 21.5297 28.6833 21.5794 28.3386C21.6023 28.1787 21.5487 28.0173 21.4346 27.9032C21.3205 27.7891 21.1596 27.736 20.9997 27.7589C20.655 27.8086 12.5263 29.0056 10.087 31.4449C7.85639 33.6755 8.84956 38.2279 9.16794 39.4464L7.25375 41.3605ZM10.0207 38.5936C9.68915 37.0339 9.23181 33.7477 10.8105 32.1684C11.7038 31.2752 13.7598 30.4059 16.7569 29.6546C18.261 29.2772 19.6574 29.0183 20.4551 28.8827C20.3196 29.6804 20.0607 31.0773 19.6838 32.5814C18.9319 35.578 18.0626 37.6341 17.1694 38.5273C16.4298 39.2669 15.2274 39.6424 13.596 39.6424C12.5 39.6424 11.4458 39.4678 10.7438 39.3181L12.0772 37.9846H13.9905C14.2728 37.9846 14.5019 37.7555 14.5019 37.4727C14.5019 37.1899 14.2728 36.9607 13.9905 36.9607L13.1011 36.9612L15.6189 34.4434H17.5317C17.814 34.4434 18.0436 34.2143 18.0436 33.9315C18.0436 33.6487 17.814 33.4195 17.5317 33.4195H16.6423L17.185 32.8769C17.3849 32.677 17.3849 32.3527 17.185 32.1528C16.9851 31.9534 16.6613 31.9534 16.4614 32.1528L14.1479 34.4663V33.5775C14.1479 33.2947 13.9188 33.0656 13.636 33.0656C13.3532 33.0656 13.1241 33.2947 13.1241 33.5775V35.4902L10.0207 38.5936Z" fill="black"/>
</g>
<defs>
<clipPath id="clip0_17_124">
<rect width="14.5052" height="14.5052" fill="white" transform="matrix(-1 0 0 1 21.597 27.7412)"/>
</clipPath>
</defs>
</svg>
