<svg width="21" height="24" viewBox="0 0 21 24" fill="none" xmlns="http://www.w3.org/2000/svg">
<path d="M1.14274 17.7527L0.568628 16.9552C0.189141 17.1895 0.0199895 17.6262 0.152156 18.0305C0.284322 18.4347 0.68665 18.7112 1.14274 18.7112V17.7527ZM19.7726 17.7527V18.7112C20.2287 18.7112 20.631 18.4347 20.7632 18.0305C20.8953 17.6262 20.7262 17.1895 20.3467 16.9552L19.7726 17.7527ZM17.7026 9.12645C17.7026 7.34704 16.9393 5.64049 15.5806 4.38224L14.1169 5.73774C15.0874 6.63648 15.6326 7.85544 15.6326 9.12645H17.7026ZM15.5806 4.38224C14.2219 3.124 12.3791 2.41713 10.4577 2.41713V4.33408C11.8302 4.33408 13.1465 4.83898 14.1169 5.73774L15.5806 4.38224ZM10.4577 2.41713C8.53617 2.41713 6.6934 3.124 5.33471 4.38224L6.79841 5.73774C7.7689 4.83898 9.08517 4.33408 10.4577 4.33408V2.41713ZM5.33471 4.38224C3.97602 5.64049 3.21272 7.34703 3.21272 9.12645H5.2827C5.2827 7.85544 5.82791 6.63648 6.79841 5.73774L5.33471 4.38224ZM3.21272 9.12645C3.21272 12.3399 2.47056 14.3354 1.78661 15.4966C1.44321 16.0796 1.10881 16.4621 0.876534 16.6892C0.760123 16.803 0.668647 16.8784 0.613569 16.921C0.586015 16.9422 0.567537 16.9553 0.559568 16.9607C0.555583 16.9635 0.554227 16.9644 0.555676 16.9634C0.5564 16.9629 0.557417 16.9621 0.559568 16.9607C0.560643 16.9601 0.56231 16.9592 0.563751 16.9582C0.564471 16.9578 0.565238 16.9573 0.56605 16.9568C0.566456 16.9566 0.567101 16.9561 0.567304 16.956C0.56796 16.9557 0.568627 16.9552 1.14274 17.7527C1.71685 18.5503 1.71754 18.5498 1.71824 18.5494C1.71849 18.5492 1.71921 18.5487 1.7197 18.5485C1.72071 18.5479 1.72175 18.5472 1.72285 18.5465C1.72504 18.5451 1.72742 18.5437 1.72999 18.542C1.73514 18.5388 1.74101 18.5349 1.74761 18.5306C1.76081 18.522 1.77689 18.5114 1.79564 18.4984C1.83316 18.4725 1.88139 18.4378 1.93874 18.3936C2.05346 18.305 2.20457 18.1783 2.37924 18.0076C2.72914 17.6655 3.171 17.1495 3.60384 16.4146C4.47237 14.94 5.2827 12.6223 5.2827 9.12645H3.21272ZM1.14274 18.7112H19.7726V16.7943H1.14274V18.7112ZM19.7726 17.7527C20.3467 16.9552 20.3473 16.9557 20.348 16.956C20.3482 16.9561 20.3489 16.9566 20.3493 16.9568C20.3501 16.9573 20.3508 16.9578 20.3515 16.9582C20.353 16.9592 20.3542 16.96 20.3554 16.9606C20.3574 16.962 20.3589 16.9629 20.3596 16.9634C20.3611 16.9644 20.3593 16.9634 20.3554 16.9606C20.3474 16.9552 20.3293 16.9422 20.3018 16.921C20.2467 16.8784 20.1552 16.803 20.0388 16.6892C19.8065 16.4621 19.4721 16.0796 19.1287 15.4966C18.4448 14.3354 17.7026 12.3399 17.7026 9.12645H15.6326C15.6326 12.6223 16.4429 14.94 17.3115 16.4146C17.7443 17.1495 18.1861 17.6655 18.5361 18.0076C18.7108 18.1783 18.8619 18.305 18.9766 18.3936C19.0339 18.4378 19.0821 18.4725 19.1197 18.4984C19.1384 18.5114 19.1545 18.522 19.1677 18.5306C19.1744 18.5349 19.1801 18.5388 19.1853 18.542C19.1879 18.5437 19.1903 18.5451 19.1925 18.5465C19.1936 18.5472 19.1946 18.5479 19.1956 18.5485C19.1961 18.5487 19.1968 18.5492 19.1971 18.5494C19.1977 18.5498 19.1985 18.5503 19.7726 17.7527Z" fill="#505050"/>
<path d="M13.1429 22.0674C13.4297 21.6095 13.2614 21.023 12.767 20.7574C12.2725 20.4917 11.6392 20.6476 11.3524 21.1055L13.1429 22.0674ZM9.56186 21.1055C9.27505 20.6476 8.64171 20.4917 8.14727 20.7574C7.65283 21.023 7.48452 21.6095 7.77133 22.0674L9.56186 21.1055ZM11.3524 21.1055C11.2614 21.2508 11.1308 21.3713 10.9737 21.4551L12.0069 23.1162C12.4782 22.8648 12.87 22.5031 13.1429 22.0674L11.3524 21.1055ZM10.9737 21.4551C10.8166 21.5389 10.6384 21.583 10.4571 21.583V23.5C11.0011 23.5 11.5355 23.3677 12.0069 23.1162L10.9737 21.4551ZM10.4571 21.583C10.2758 21.583 10.0977 21.5389 9.94055 21.4551L8.9074 23.1162C9.37876 23.3677 9.91317 23.5 10.4571 23.5V21.583ZM9.94055 21.4551C9.78343 21.3713 9.65285 21.2508 9.56186 21.1055L7.77133 22.0674C8.04428 22.5031 8.43604 22.8648 8.9074 23.1162L9.94055 21.4551Z" fill="#505050"/>
<path d="M15.4026 8.55C17.6255 8.55 19.4276 6.74795 19.4276 4.525C19.4276 2.30205 17.6255 0.5 15.4026 0.5C13.1796 0.5 11.3776 2.30205 11.3776 4.525C11.3776 6.74795 13.1796 8.55 15.4026 8.55Z" fill="#007E2F"/>
<path d="M15.4026 8.04702C17.3477 8.04702 18.9245 6.47022 18.9245 4.52514C18.9245 2.58006 17.3477 1.00327 15.4026 1.00327C13.4575 1.00327 11.8807 2.58006 11.8807 4.52514C11.8807 6.47022 13.4575 8.04702 15.4026 8.04702Z" fill="#007E2F" stroke="#EDEDED"/>
</svg>
