<svg width="53" height="53" viewBox="0 0 53 53" fill="none" xmlns="http://www.w3.org/2000/svg">
<g clip-path="url(#clip0_16_73)">
<path d="M33.0101 5.591V9.62316H19.8992V5.591H9.46945V51.0529H43.4399V5.591H33.0101Z" fill="#D7E1F2"/>
<path d="M33.0101 1.86133H19.8992V9.62316H33.0101V1.86133Z" fill="#D71920"/>
<path d="M43.4399 4.5913H34.0099V1.86134C34.0099 1.30922 33.5622 0.861511 33.0101 0.861511H19.8992C19.3471 0.861511 18.8994 1.30922 18.8994 1.86134V4.5913H9.46945C8.91733 4.5913 8.46962 5.03901 8.46962 5.59113V51.0529C8.46962 51.6051 8.91733 52.0528 9.46945 52.0528H43.4399C43.992 52.0528 44.4397 51.6051 44.4397 51.0529V5.59113C44.4397 5.0389 43.992 4.5913 43.4399 4.5913ZM32.0102 8.62324H20.8991V2.86117H32.0102V8.62324ZM42.44 50.0531H10.4693V6.59095H18.8994V9.62317C18.8994 10.1753 19.3471 10.623 19.8992 10.623H33.0101C33.5622 10.623 34.0099 10.1753 34.0099 9.62317V6.59095H42.44V50.0531Z" fill="black"/>
<path d="M30.1339 15.7638H14.7112C14.1591 15.7638 13.7113 15.3161 13.7113 14.764C13.7113 14.2119 14.1591 13.7642 14.7112 13.7642H30.1339C30.686 13.7642 31.1337 14.2119 31.1337 14.764C31.1337 15.3161 30.686 15.7638 30.1339 15.7638Z" fill="black"/>
<path d="M38.5006 20.9047H14.7112C14.1591 20.9047 13.7113 20.457 13.7113 19.9049C13.7113 19.3528 14.1591 18.9051 14.7112 18.9051H38.5006C39.0527 18.9051 39.5004 19.3528 39.5004 19.9049C39.5004 20.457 39.0527 20.9047 38.5006 20.9047Z" fill="black"/>
<path d="M38.5006 26.0457H14.7112C14.1591 26.0457 13.7113 25.598 13.7113 25.0459C13.7113 24.4938 14.1591 24.0461 14.7112 24.0461H38.5006C39.0527 24.0461 39.5004 24.4938 39.5004 25.0459C39.5004 25.598 39.0527 26.0457 38.5006 26.0457Z" fill="black"/>
<path d="M38.5006 30.8842H14.7112C14.1591 30.8842 13.7113 30.4365 13.7113 29.8844C13.7113 29.3322 14.1591 28.8845 14.7112 28.8845H38.5006C39.0527 28.8845 39.5004 29.3322 39.5004 29.8844C39.5004 30.4365 39.0527 30.8842 38.5006 30.8842Z" fill="black"/>
<path d="M38.5006 15.7638H35.1741C34.622 15.7638 34.1743 15.3161 34.1743 14.764C34.1743 14.2119 34.622 13.7642 35.1741 13.7642H38.5006C39.0527 13.7642 39.5004 14.2119 39.5004 14.764C39.5004 15.3161 39.0527 15.7638 38.5006 15.7638Z" fill="black"/>
<path d="M36.1132 36.5901C35.1364 35.6234 33.7871 35.0254 32.2965 35.0254C30.8901 35.0254 29.6096 35.5582 28.649 36.4305L32.4617 40.2044L36.1132 36.5901Z" fill="#D7E1F2"/>
<path d="M23.5819 36.4305C22.5064 37.4071 21.8318 38.8093 21.8318 40.3679C21.8318 41.8432 22.4359 43.1788 23.4126 44.1457L27.3946 40.2044L23.5819 36.4305Z" fill="#D71920"/>
<path d="M23.4126 45.1454C23.1584 45.1454 22.9041 45.049 22.7093 44.8562C21.4987 43.6579 20.8319 42.0639 20.8319 40.3678C20.8319 38.5942 21.5893 36.8894 22.9097 35.6903C23.3031 35.3329 23.9075 35.346 24.2851 35.7199L28.0978 39.4936C28.2876 39.6814 28.3944 39.9374 28.3944 40.2043C28.3944 40.4712 28.2877 40.727 28.0979 40.9149L24.116 44.8562C23.9212 45.0491 23.6669 45.1454 23.4126 45.1454ZM23.6259 37.8808C23.1143 38.6047 22.8317 39.4739 22.8317 40.3678C22.8317 41.1906 23.062 41.9787 23.4923 42.66L25.9735 40.2043L23.6259 37.8808Z" fill="black"/>
<path d="M28.4799 44.1456C29.4567 45.1124 30.806 45.7104 32.2966 45.7104C35.2777 45.7104 37.6942 43.3185 37.6942 40.3678C37.6942 38.8925 37.0901 37.5569 36.1133 36.59L28.4799 44.1456Z" fill="#3B4D81"/>
<path d="M36.8167 35.8797L36.8166 35.8796V35.8795L36.8165 35.8794C35.6086 34.6838 34.0035 34.0254 32.2966 34.0254C30.6933 34.0254 29.1591 34.6167 27.9769 35.6903C27.7737 35.8748 27.6554 36.1346 27.6494 36.409C27.6435 36.6834 27.7506 36.9481 27.9458 37.1411L31.0405 40.2043L27.7765 43.435C27.5868 43.6227 27.4801 43.8787 27.4801 44.1456C27.4801 44.4125 27.5868 44.6683 27.7765 44.8562C28.9844 46.0518 30.5897 46.7102 32.2967 46.7102C35.8242 46.7102 38.6941 43.865 38.6941 40.3678C38.6939 38.6718 38.0272 37.078 36.8167 35.8797ZM30.1941 36.5531C30.8337 36.2087 31.5541 36.0252 32.2965 36.0252C33.1264 36.0252 33.9212 36.2506 34.6091 36.6721L32.4617 38.7976L30.1941 36.5531ZM32.2965 44.7105C31.4664 44.7105 30.6717 44.4851 29.9839 44.0636L33.9423 40.1455L36.0335 38.0757C36.464 38.757 36.6943 39.545 36.6943 40.3678C36.6943 42.7625 34.7215 44.7105 32.2965 44.7105Z" fill="black"/>
<path d="M26.9546 6.46057H23.5552C23.003 6.46057 22.5553 6.01285 22.5553 5.46074C22.5553 4.90862 23.003 4.46091 23.5552 4.46091H26.9546C27.5067 4.46091 27.9544 4.90862 27.9544 5.46074C27.9544 6.01285 27.5067 6.46057 26.9546 6.46057Z" fill="black"/>
</g>
<defs>
<clipPath id="clip0_16_73">
<rect width="51.1913" height="51.1913" fill="white" transform="translate(0.859024 0.861511)"/>
</clipPath>
</defs>
</svg>
