<svg width="55" height="53" viewBox="0 0 55 53" fill="none" xmlns="http://www.w3.org/2000/svg">
<line x1="1.3126" y1="52.0528" x2="1.3126" y2="41.552" stroke="black" stroke-width="2"/>
<line x1="2.3126" y1="51.0528" x2="12.8134" y2="51.0528" stroke="black" stroke-width="2"/>
<line x1="1" y1="1.17407" x2="11.5008" y2="1.17407" stroke="black" stroke-width="2"/>
<line x1="2" y1="2.17407" x2="2" y2="12.6748" stroke="black" stroke-width="2"/>
<line x1="53.1913" y1="0.861511" x2="53.1913" y2="11.3623" stroke="black" stroke-width="2"/>
<line x1="52.1913" y1="1.86151" x2="41.6905" y2="1.86151" stroke="black" stroke-width="2"/>
<line x1="53.5039" y1="51.7402" x2="43.0031" y2="51.7402" stroke="black" stroke-width="2"/>
<line x1="52.5039" y1="50.7402" x2="52.5039" y2="40.2394" stroke="black" stroke-width="2"/>
<g clip-path="url(#clip0_16_65)">
<path d="M18.0853 20.2369C14.4423 23.8811 15.4976 31.4641 16.2626 35.0632L23.4237 27.9021V23.4884C23.4237 22.8359 23.9525 22.3071 24.6051 22.3071C25.2576 22.3071 25.7864 22.8359 25.7864 23.4884V25.5394L31.1249 20.2009C31.5862 19.7408 32.3332 19.7408 32.7945 20.2009C33.2558 20.6622 33.2558 21.4104 32.7945 21.8717L31.5423 23.1239H33.5944C34.2458 23.1239 34.7758 23.6527 34.7758 24.3052C34.7758 24.9577 34.2458 25.4865 33.5944 25.4865H29.1808L23.3709 31.2964L25.423 31.2953C26.0744 31.2953 26.6032 31.8241 26.6032 32.4766C26.6032 33.1292 26.0744 33.658 25.423 33.658H21.0082L17.9311 36.735C19.5512 37.0804 21.9836 37.4832 24.5128 37.4832C28.2773 37.4832 31.0518 36.6169 32.7585 34.9102C34.8196 32.849 36.8256 28.1046 38.5605 21.1899C39.4302 17.719 40.0276 14.4957 40.3404 12.6551C38.4998 12.9678 35.2775 13.5652 31.8067 14.4361C24.8908 16.1698 20.1464 18.1758 18.0853 20.2369Z" fill="#0B9D60"/>
<path d="M9.87783 41.448C9.41655 41.9092 9.41655 42.6574 9.87783 43.1176C10.1085 43.3482 10.4111 43.4641 10.7126 43.4641C11.0153 43.4641 11.3179 43.3482 11.5486 43.1176L15.9656 38.7005C17.39 39.0707 20.8158 39.8447 24.5128 39.8447C28.9265 39.8447 32.2635 38.7467 34.4292 36.5809C40.058 30.9521 42.82 12.1949 42.9348 11.3995C42.9877 11.0304 42.8639 10.658 42.6007 10.3948C42.3374 10.1315 41.9661 10.0089 41.5971 10.0618C40.8017 10.1765 22.0444 12.9386 16.4156 18.5673C11.2684 23.7145 13.5602 34.2194 14.2949 37.0309L9.87783 41.448ZM16.2626 35.0632C15.4976 31.4641 14.4423 23.881 18.0853 20.2369C20.1464 18.1758 24.8908 16.1698 31.8067 14.436C35.2775 13.5652 38.4998 12.9678 40.3404 12.6551C40.0276 14.4957 39.4302 17.719 38.5605 21.1899C36.8256 28.1046 34.8196 32.849 32.7585 34.9102C31.0518 36.6169 28.2773 37.4832 24.5128 37.4832C21.9836 37.4832 19.5512 37.0804 17.9311 36.735L21.0082 33.6579H25.423C26.0744 33.6579 26.6032 33.1292 26.6032 32.4766C26.6032 31.8241 26.0744 31.2953 25.423 31.2953L23.3709 31.2964L29.1808 25.4865H33.5944C34.2458 25.4865 34.7758 24.9577 34.7758 24.3052C34.7758 23.6527 34.2458 23.1239 33.5944 23.1239H31.5423L32.7945 21.8717C33.2558 21.4104 33.2558 20.6622 32.7945 20.2009C32.3332 19.7408 31.5862 19.7408 31.1249 20.2009L25.7864 25.5394V23.4884C25.7864 22.8359 25.2576 22.3071 24.6051 22.3071C23.9525 22.3071 23.4237 22.8359 23.4237 23.4884V27.9021L16.2626 35.0632Z" fill="black"/>
</g>
<defs>
<clipPath id="clip0_16_65">
<rect width="33.4712" height="33.4712" fill="white" transform="matrix(-1 0 0 1 43.0031 10.0497)"/>
</clipPath>
</defs>
</svg>
